<svg xmlns="http://www.w3.org/2000/svg" width="620.319" height="120.581" viewBox="0 0 164.126 31.904"><path d="M59.855 102.061h20.178v26.455H59.855z" style="fill:none;stroke:#ffc107;stroke-width:2.065;stroke-dasharray:none;stroke-opacity:1" transform="translate(-58.822 -101.028)"/><g aria-label="JewishHistory" style="font-size:22.7219px;fill:#003380;stroke-width:.852071"><path d="M80.671 112.778h-4.226v11.747q0 1.159-.318 1.545-.296.386-.773.386-.477 0-.795-.386-.295-.386-.295-1.545v-.795h-3.818v.34q0 2.545 1.136 3.863t3.795 1.318q2.613 0 3.953-1.182 1.341-1.204 1.341-4.135zM88.147 120.776v.545h-2.25v-.545q0-.977.227-1.432.25-.454.886-.454.66 0 .887.454.25.455.25 1.432zm-2.25 2.772h6.067v-1.25q0-1.681-.318-2.795-.296-1.136-.932-1.818-.613-.704-1.545-1-.909-.295-2.136-.295-1.386 0-2.386.364-.977.34-1.613 1.113-.636.773-.931 2-.296 1.227-.296 3 0 1.749.25 2.976.273 1.227.886 2 .614.749 1.614 1.09 1 .318 2.476.318 2.545 0 3.658-1.136 1.114-1.159 1.16-3.431h-3.682q0 1.25-.318 1.704-.295.432-.84.432-.432 0-.773-.318-.34-.341-.34-1.341zM92.282 116.708l2.5 12.293h4.635l1.25-8.703h.045l1.25 8.703h4.635l2.5-12.293h-3.955l-1.022 8.84h-.045l-1.205-8.84h-4.362l-1.205 8.84h-.045l-1.022-8.84zM109.982 112.778v3.044h4.09v-3.044zm0 3.93v12.293h4.09v-12.293zM118.935 125.184h-3.59q0 2.022 1.113 3.044 1.136 1.023 3.704 1.023 1.158 0 2.067-.273.932-.272 1.545-.818.637-.545.978-1.295.34-.75.34-1.659 0-1.181-.454-1.885-.432-.728-1.09-1.137-.66-.431-1.432-.659-.75-.227-1.409-.431-.659-.205-1.113-.455-.432-.272-.432-.795 0-.454.295-.704.296-.25.75-.25.523 0 .795.295.296.273.296 1.068h3.544q0-3.863-4.612-3.863-1.25 0-2.181.296-.91.295-1.523.818-.59.522-.886 1.227-.295.681-.295 1.5 0 1.158.431 1.885.455.705 1.114 1.136.659.432 1.408.682.773.25 1.432.477.659.227 1.09.523.455.295.455.84 0 .5-.363.773-.341.273-.818.273-.569 0-.864-.432-.159-.205-.227-.523-.068-.318-.068-.681zM126.297 112.778V129h4.09v-8.112q0-.772.227-1.113.227-.34.772-.34.546 0 .773.34.227.34.227 1.113v8.112h4.09v-9.27q0-.955-.273-1.591-.25-.659-.704-1.045-.432-.387-1.023-.546-.568-.159-1.204-.159-.75 0-1.545.364-.772.34-1.295 1.318h-.045v-5.294zM138.294 112.778V129h4.226v-6.68h2.59V129h4.227v-16.223h-4.227v5.953h-2.59v-5.953zM151.222 112.778v3.044h4.09v-3.044zm0 3.93v12.293h4.09v-12.293zM160.175 125.184h-3.59q0 2.022 1.113 3.044 1.136 1.023 3.704 1.023 1.159 0 2.068-.273.931-.272 1.545-.818.636-.545.977-1.295.34-.75.34-1.659 0-1.181-.454-1.885-.432-.728-1.09-1.137-.66-.431-1.432-.659-.75-.227-1.409-.431-.659-.205-1.113-.455-.432-.272-.432-.795 0-.454.295-.704.296-.25.75-.25.523 0 .796.295.295.273.295 1.068h3.545q0-3.863-4.613-3.863-1.25 0-2.181.296-.91.295-1.523.818-.59.522-.886 1.227-.295.681-.295 1.5 0 1.158.432 1.885.454.705 1.113 1.136.659.432 1.409.682.772.25 1.431.477.66.227 1.09.523.455.295.455.84 0 .5-.363.773-.341.273-.818.273-.568 0-.864-.432-.159-.205-.227-.523-.068-.318-.068-.681zM166.764 116.708v2.75h1.364v6.544q0 1.022.181 1.658.205.614.614.932.432.318 1.09.409.66.068 1.591.068.523 0 1.09-.045.569-.023 1.137-.023v-2.727h-.636q-.5 0-.75-.204-.228-.227-.228-.75v-5.862h1.614v-2.75h-1.614v-3.612h-4.09v3.612zM178.42 122.866q0-1.159.046-1.909.045-.75.182-1.181.136-.432.34-.59.228-.16.569-.16.34 0 .568.16.227.158.34.59.137.432.182 1.181.046.75.046 1.91 0 1.158-.046 1.908-.045.727-.182 1.159-.113.431-.34.59-.228.16-.568.16-.341 0-.568-.16-.205-.159-.341-.59-.137-.432-.182-1.16-.045-.75-.045-1.908zm6.363 0q0-1.34-.16-2.5-.136-1.18-.658-2.067-.523-.886-1.568-1.386-1.045-.523-2.84-.523-1.727 0-2.772.568-1.023.546-1.568 1.455-.546.908-.727 2.067-.16 1.16-.16 2.363 0 1.341.137 2.522.159 1.16.682 2.045.522.864 1.567 1.364 1.046.477 2.84.477 1.727 0 2.75-.523 1.045-.545 1.59-1.431.546-.909.705-2.068.182-1.159.182-2.363zM185.941 116.708v12.293h4.09v-6.703q0-1.227.591-1.704.614-.477 1.704-.477.25 0 .5.022.25.023.523.069v-3.818h-.66q-.908 0-1.658.591-.75.568-1.09 1.682h-.046v-1.955zM194.78 129.978v2.863q.523.045 1.068.068.568.023 1.227.023.818 0 1.454-.16.637-.158 1.114-.567.5-.41.84-1.114.364-.681.637-1.75l3.294-12.633h-4.09l-1.181 8.294h-.046l-1.25-8.294h-4.203l3.227 11.589q.068.25.113.477.068.227.068.363 0 .091-.068.25-.068.16-.227.296-.159.159-.432.272-.25.114-.636.114-.227 0-.454-.023-.228-.022-.455-.068z" style="font-weight:900;font-stretch:condensed;font-family:&quot;Helvetica Neue&quot;;-inkscape-font-specification:&quot;Helvetica Neue Heavy Condensed&quot;;fill:#303f9f;fill-opacity:1" transform="translate(-58.822 -101.028)"/></g><g stroke="none" aria-label=".info" style="font-weight:900;font-stretch:condensed;font-size:10.0409px;font-family:&quot;Helvetica Neue&quot;;-inkscape-font-specification:&quot;Helvetica Neue Heavy Condensed&quot;;fill:#bdbdbd;fill-opacity:1;stroke:#fd5;stroke-width:2.93873"><path d="M203.117 127.783v1.546h1.577v-1.546zM207.315 123.335v-1.175h-1.426v1.175zm-1.426.803v5.191h1.426v-5.19zM208.44 124.138v5.191h1.425v-2.72q0-.794.261-1.135.261-.352.843-.352.513 0 .713.321.201.312.201.954v2.932h1.426v-3.193q0-.482-.09-.873-.08-.402-.292-.673-.21-.281-.582-.432-.361-.16-.934-.16-.452 0-.883.21-.432.201-.703.653h-.03v-.723zM214.705 125.092v4.237h1.425v-4.237h.984v-.954h-.984v-.311q0-.321.12-.452.131-.14.423-.14.27 0 .522.03V122.2l-.372-.02q-.19-.02-.381-.02-.874 0-1.306.442-.431.442-.431 1.134v.402h-.854v.954zM219.002 126.739q0-.312.06-.613t.201-.532q.15-.23.392-.371.24-.151.602-.151t.603.15q.25.141.391.372.15.231.211.532.06.301.06.613 0 .311-.06.612-.06.291-.21.532-.141.231-.392.372-.241.14-.603.14-.361 0-.602-.14t-.392-.372q-.14-.24-.2-.532-.06-.301-.06-.612zm-1.426 0q0 .622.191 1.124.19.502.542.864.352.351.844.542.492.19 1.104.19.613 0 1.105-.19.502-.19.853-.542.352-.362.542-.864.191-.502.191-1.124 0-.623-.19-1.125-.191-.512-.543-.863-.351-.362-.853-.553-.492-.2-1.105-.2-.612 0-1.104.2-.492.191-.844.553-.351.351-.542.863-.19.502-.19 1.125z" style="font-weight:700;font-stretch:normal;-inkscape-font-specification:&quot;Helvetica Neue Bold&quot;;fill:#bdbdbd;fill-opacity:1;stroke:none" transform="translate(-58.822 -101.028)"/></g></svg>